<?xml version="1.0" standalone="no"?>
<!DOCTYPE svg PUBLIC "-//W3C//DTD SVG 20010904//EN"
 "http://www.w3.org/TR/2001/REC-SVG-20010904/DTD/svg10.dtd">
<svg version="1.0" xmlns="http://www.w3.org/2000/svg"
 width="500.000000pt" height="500.000000pt" viewBox="0 0 500.000000 500.000000"
 preserveAspectRatio="xMidYMid meet">

<g transform="translate(0.000000,500.000000) scale(0.100000,-0.100000)"
fill="#000000" stroke="none">
<path d="M3643 4484 c-47 -23 -142 -121 -197 -203 -26 -39 -81 -140 -123 -224
-178 -358 -349 -621 -563 -867 l-65 -74 -5 -105 -5 -105 -39 34 -39 35 -91
-96 c-167 -177 -231 -320 -265 -599 -11 -88 -15 -227 -6 -218 3 3 14 63 24
134 27 177 52 285 61 259 5 -15 10 -5 19 40 22 105 34 136 83 206 26 37 51 70
56 73 5 3 7 -32 6 -77 -2 -56 -1 -74 5 -57 5 14 9 57 10 95 1 70 1 71 46 115
l44 43 9 -24 c5 -13 15 -49 22 -79 7 -30 17 -62 22 -70 14 -23 -2 89 -18 129
-19 45 -17 51 6 22 11 -13 30 -54 41 -92 12 -38 23 -69 26 -69 7 0 -2 79 -12
105 -7 18 -5 17 18 -4 20 -18 27 -34 27 -61 0 -31 -18 -63 -108 -191 -172
-246 -223 -314 -233 -311 -5 1 -9 -6 -9 -16 0 -11 -9 -27 -19 -36 -19 -17 -19
-15 -26 71 -8 110 -11 118 -20 69 -5 -23 -3 -62 4 -95 17 -83 17 -84 6 -88 -6
-2 -17 18 -25 44 -11 40 -14 44 -18 23 -2 -14 4 -39 13 -57 18 -32 17 -32 -16
-75 -150 -194 -253 -318 -266 -318 -8 0 -56 8 -107 17 -77 14 -106 15 -191 5
-55 -6 -125 -19 -156 -28 l-57 -16 -7 -79 -6 -79 -47 -24 c-85 -43 -125 -110
-124 -207 0 -64 24 -118 71 -163 17 -17 31 -36 31 -44 0 -8 -33 -49 -74 -91
-92 -94 -116 -142 -116 -236 0 -104 8 -113 133 -163 212 -85 394 -118 607
-109 139 6 228 24 339 68 88 35 180 89 192 112 17 30 6 165 -16 207 -10 19
-56 72 -102 116 -48 48 -83 90 -83 101 0 11 13 32 30 46 67 60 88 160 51 242
-22 48 -34 59 -114 100 l-62 32 -3 74 c-2 41 -7 78 -11 82 -10 10 -102 13
-116 5 -6 -3 -28 -9 -50 -13 -40 -7 -40 -7 -17 10 13 9 26 14 29 11 3 -3 14
-1 25 5 11 6 29 12 41 15 12 2 51 35 87 74 l65 71 130 3 c246 6 396 79 640
311 l100 95 -125 -56 c-69 -31 -143 -63 -165 -71 -48 -17 -165 -33 -165 -22 0
18 72 64 157 100 192 82 314 178 377 298 19 37 51 126 70 197 42 158 42 156
160 438 53 125 96 231 96 236 0 4 -25 3 -56 -2 -85 -13 -87 -5 -7 35 l72 37
50 152 c123 377 164 557 159 700 -3 91 -5 102 -27 119 -28 23 -46 24 -88 3z
m64 -164 c-5 -113 -24 -195 -103 -457 l-47 -154 -65 -30 c-36 -16 -62 -32 -59
-35 3 -3 30 5 60 19 l55 25 -9 -31 c-5 -18 -9 -33 -9 -35 0 -2 -4 -1 -9 2 -12
8 -127 -29 -171 -55 -26 -15 -29 -18 -10 -13 24 6 126 43 164 59 17 8 19 5 12
-25 -3 -18 -7 -34 -9 -35 -1 -1 -45 -25 -98 -52 -53 -28 -120 -66 -148 -85
l-51 -35 76 -7 c43 -3 97 -6 121 -6 42 0 43 -1 31 -22 -7 -13 -12 -26 -13 -29
0 -3 -20 -53 -44 -111 -43 -103 -46 -107 -117 -163 -41 -32 -74 -59 -74 -62 0
-8 77 37 103 60 15 15 27 21 27 15 0 -20 -75 -82 -140 -117 -55 -28 -59 -32
-30 -27 19 3 57 20 84 36 38 24 47 27 41 13 -3 -10 -25 -83 -47 -163 -22 -80
-53 -171 -70 -202 -58 -109 -169 -194 -359 -273 -48 -20 -105 -51 -127 -70
-22 -19 -43 -35 -47 -35 -4 0 -38 -16 -76 -35 -39 -19 -72 -35 -75 -35 -3 0 8
17 25 39 24 30 45 43 98 61 75 25 147 59 141 66 -6 6 -105 -29 -157 -55 l-43
-22 19 31 c10 17 32 46 48 64 17 18 30 37 30 42 0 5 20 44 45 87 43 73 49 79
120 116 41 21 99 46 128 56 63 20 63 30 1 16 -24 -5 -45 -8 -47 -7 -2 2 40 21
92 42 53 20 94 39 92 42 -8 8 -148 -39 -207 -69 -64 -32 -89 -56 -35 -34 51
22 58 17 11 -6 -22 -12 -51 -28 -65 -37 -14 -9 -28 -17 -32 -17 -4 0 -36 -38
-70 -85 -35 -47 -136 -180 -225 -295 -123 -159 -172 -215 -199 -227 -33 -15
-35 -15 -21 0 8 10 47 55 87 102 199 232 417 550 602 875 33 60 35 61 178 135
171 89 219 120 283 188 63 69 60 77 -7 14 -60 -57 -115 -94 -265 -176 -57 -32
-116 -65 -129 -74 -24 -16 -25 -16 -13 5 13 25 14 36 4 30 -10 -6 -9 99 1 218
6 73 12 96 32 120 28 35 27 40 13 -120 -14 -161 -14 -157 -27 -182 -20 -36
-14 -36 21 0 19 20 63 46 110 66 96 39 207 107 267 161 l45 41 -35 -5 c-43 -7
-147 -49 -134 -53 5 -2 32 3 59 11 27 9 51 13 53 11 7 -7 -350 -204 -360 -199
-3 2 0 25 8 51 8 27 14 91 14 157 0 61 5 118 10 126 7 10 10 -22 11 -100 1
-97 3 -109 11 -75 5 22 7 77 4 123 l-6 82 37 57 38 56 3 -75 c1 -41 -1 -100
-6 -132 -9 -53 -8 -56 9 -44 81 58 225 153 270 178 30 16 51 30 48 30 -17 0
-91 -31 -128 -54 -68 -43 -150 -76 -157 -64 -4 7 -2 8 4 4 7 -4 19 9 31 33 22
42 69 84 164 146 31 21 55 40 53 42 -6 6 -85 -35 -126 -65 l-35 -26 26 44 c15
25 45 79 67 120 23 42 56 87 74 100 18 13 66 48 107 77 40 29 69 53 64 53 -16
0 -88 -42 -130 -77 -24 -19 -43 -32 -43 -29 0 20 118 237 145 267 39 44 90
128 82 136 -3 3 -24 -23 -46 -57 -53 -82 -52 -69 3 36 25 46 50 111 57 144 10
52 14 58 27 48 12 -10 13 -32 9 -118z m-71 20 c-63 -158 -154 -332 -115 -222
20 57 3 58 -19 2 l-21 -55 6 50 c3 28 14 84 25 125 16 67 24 81 74 130 l55 55
-22 -49 c-23 -54 -40 -106 -33 -106 6 0 50 91 64 133 6 21 14 36 17 33 3 -3
-11 -46 -31 -96z m-151 -135 c-8 -26 -15 -59 -15 -72 0 -27 -16 -31 -23 -5 -5
17 -10 -57 -12 -153 0 -29 -8 -63 -19 -80 -9 -16 -15 -21 -11 -11 3 11 8 46
12 79 5 44 3 58 -5 53 -7 -4 -12 -14 -12 -23 0 -9 -5 -46 -11 -82 l-12 -66
-18 68 -19 67 41 83 c47 94 109 200 115 195 2 -2 -3 -26 -11 -53z m-8 -187
c-3 -7 -5 -2 -5 12 0 14 2 19 5 13 2 -7 2 -19 0 -25z m-137 -100 c0 -26 -3
-30 -11 -18 -8 11 -9 7 -4 -17 7 -37 -10 -177 -25 -201 -8 -13 -9 -9 -5 15 6
28 -3 129 -10 121 -2 -2 -6 -48 -10 -103 -7 -89 -12 -109 -46 -177 -22 -43
-41 -78 -43 -78 -2 0 -1 31 2 69 2 38 0 83 -6 101 -10 28 -7 38 36 114 26 46
61 111 77 144 17 34 33 62 38 62 4 0 7 -15 7 -32z m7 -150 c-3 -8 -6 -5 -6 6
-1 11 2 17 5 13 3 -3 4 -12 1 -19z m-178 -195 l-2 -78 -8 69 c-7 64 -5 86 7
86 2 0 3 -35 3 -77z m-239 -404 c-19 -147 -37 -236 -46 -227 -2 2 1 20 6 39
13 45 12 110 -4 189 -12 63 -13 61 -11 -90 2 -130 -1 -159 -15 -182 l-16 -27
-1 63 c0 56 -29 174 -39 163 -2 -2 3 -41 11 -88 16 -89 19 -161 8 -172 -3 -4
-16 15 -29 41 -26 55 -31 45 -8 -21 15 -44 15 -49 -1 -74 l-18 -26 -13 39
c-16 46 -19 234 -4 234 6 0 10 -1 10 -3 0 -2 11 -35 25 -73 22 -63 24 -66 25
-33 0 21 -13 61 -30 95 -16 32 -30 64 -30 70 0 6 36 52 80 103 45 51 88 104
97 117 9 14 17 23 20 21 2 -2 -6 -73 -17 -158z m-360 -1009 c-14 -11 -37 -25
-52 -31 -60 -25 -29 -32 120 -26 81 3 158 9 172 12 37 10 -71 -62 -144 -96
-78 -37 -200 -68 -296 -76 l-75 -6 20 22 c15 18 28 22 55 18 98 -12 247 28
310 83 l25 22 -25 -14 c-61 -37 -177 -70 -260 -76 -77 -5 -84 -4 -72 11 11 12
31 16 85 16 42 0 89 6 112 15 l40 15 -65 -4 c-36 -2 -56 -2 -45 1 45 13 40 27
-8 20 -64 -8 -80 -19 -42 -27 29 -6 29 -7 -8 -8 -33 -1 -37 1 -28 17 29 49 70
83 131 106 80 30 81 30 50 6z m-342 -249 c-13 -16 -32 -34 -43 -40 -11 -5 -36
-20 -55 -32 l-35 -23 25 28 c21 24 118 96 128 96 2 0 -7 -13 -20 -29z m-73
-91 c-10 -11 -23 -20 -29 -20 -6 1 0 10 13 20 30 26 39 26 16 0z m-259 -88
c-18 -16 -18 -16 -6 6 6 13 14 21 18 18 3 -4 -2 -14 -12 -24z m-26 14 c0 -3
-4 -8 -10 -11 -5 -3 -10 -1 -10 4 0 6 5 11 10 11 6 0 10 -2 10 -4z m85 -26
c-3 -5 -12 -10 -18 -10 -7 0 -6 4 3 10 19 12 23 12 15 0z m-165 -10 c12 -7 10
-9 -8 -7 -12 0 -22 5 -22 9 0 11 12 10 30 -2z m47 -6 c-3 -3 -12 -4 -19 -1 -8
3 -5 6 6 6 11 1 17 -2 13 -5z m-191 -65 c51 -3 93 -2 213 6 114 7 124 7 118
-8 -3 -10 -2 -27 3 -39 9 -24 11 -21 14 34 1 9 4 20 9 24 4 4 8 -28 8 -72 1
-53 4 -69 8 -49 l7 30 10 -25 c7 -20 10 -11 14 50 6 91 24 91 22 0 -1 -47 1
-58 8 -40 4 14 8 46 9 72 1 42 3 47 32 57 50 17 52 16 46 -51 -2 -35 -2 -71 2
-81 3 -9 33 -30 66 -46 80 -38 107 -68 112 -128 6 -57 -21 -104 -79 -142 -31
-20 -36 -28 -31 -51 4 -24 0 -31 -38 -54 l-44 -26 -7 23 c-5 20 -6 20 -7 -5
-1 -16 -6 -28 -12 -28 -8 0 -8 -4 -2 -12 16 -20 24 -66 14 -73 -15 -8 -23 12
-31 74 l-7 56 -2 -72 c-1 -89 -21 -99 -21 -11 0 77 -13 67 -20 -15 l-5 -62
-73 -19 c-40 -10 -71 -20 -69 -22 4 -4 110 12 137 21 13 4 24 -5 44 -39 14
-24 33 -46 41 -50 11 -4 8 4 -8 27 -14 17 -28 42 -32 55 -11 36 16 26 50 -20
17 -22 46 -49 65 -61 34 -20 33 -18 -12 28 -47 47 -66 80 -54 93 4 3 21 -11
40 -31 43 -47 52 -47 21 -1 -14 20 -25 41 -25 45 0 19 16 7 37 -26 13 -19 37
-42 55 -51 18 -9 30 -13 26 -9 -4 4 15 19 43 32 40 20 52 23 64 13 23 -19 19
-27 -39 -66 -35 -23 -53 -41 -49 -50 5 -14 -42 -39 -57 -29 -4 3 -11 -2 -14
-11 -3 -8 -11 -14 -18 -12 -7 1 -23 -3 -35 -10 -13 -7 -23 -8 -23 -3 0 5 6 11
13 14 6 2 3 3 -8 1 -221 -39 -516 -21 -716 42 -45 14 -90 28 -98 31 -12 4 -13
2 -3 -4 9 -7 10 -27 6 -71 -9 -86 -30 -82 -27 5 2 47 0 62 -6 48 -5 -11 -10
-39 -10 -62 -1 -43 -14 -57 -25 -27 -11 29 -6 124 8 158 15 35 82 116 97 116
4 0 21 -12 36 -26 15 -14 43 -32 62 -40 33 -14 167 -22 178 -11 3 3 -15 11
-38 17 -149 38 -196 52 -208 59 -10 7 -5 20 23 61 20 29 36 59 36 66 0 12 5
12 34 0 83 -35 282 -61 380 -51 71 8 90 25 29 25 -21 0 -124 11 -229 24 -166
21 -197 28 -230 50 -63 42 -89 89 -89 161 0 52 4 67 29 99 35 47 123 91 144
73 12 -10 12 -13 -4 -22 -29 -16 -74 -62 -74 -76 0 -6 20 7 45 30 47 43 52 46
73 33 10 -7 9 -15 -4 -40 -8 -18 -14 -38 -11 -45 2 -6 12 5 22 26 11 20 22 37
26 37 5 0 34 -7 66 -15 83 -22 217 -19 297 5 36 12 66 22 66 24 0 2 -62 1
-138 -2 -150 -5 -248 7 -319 38 l-43 19 0 71 0 72 31 -26 c17 -14 41 -27 55
-27z m394 11 c0 -5 -4 -10 -10 -10 -5 0 -10 5 -10 10 0 6 5 10 10 10 6 0 10
-4 10 -10z m215 -530 c4 -11 31 -47 60 -79 53 -57 54 -58 32 -68 -28 -13 -41
-4 -82 52 l-30 40 47 -42 c56 -51 75 -57 32 -10 -17 17 -41 47 -54 65 -18 26
-25 31 -32 20 -7 -10 -8 -8 -4 5 3 10 6 23 6 28 0 17 19 9 25 -11z m-41 -46
c6 -24 2 -43 -8 -33 -11 10 -17 59 -8 59 5 0 13 -12 16 -26z m-34 -3 c0 -11 3
-27 7 -37 4 -11 2 -15 -7 -12 -15 5 -32 53 -22 62 11 12 22 5 22 -13z m71 -65
c11 -14 28 -28 39 -31 25 -8 26 -21 3 -30 -13 -4 -26 3 -45 26 -26 31 -36 59
-22 59 3 0 15 -11 25 -24z m205 -183 c3 -66 3 -67 -6 -18 -5 28 -11 63 -15 80
-4 22 -2 26 6 18 6 -6 13 -42 15 -80z m-54 -10 c5 -36 3 -52 -6 -42 -9 11 -16
79 -8 79 6 0 12 -17 14 -37z m-978 13 c33 -14 33 -14 29 -72 -3 -43 -2 -55 6
-44 6 8 11 32 11 53 0 20 5 37 10 37 6 0 10 -28 11 -62 0 -68 17 -55 18 14 1
29 4 36 16 32 11 -5 15 -22 15 -65 0 -32 -4 -59 -8 -59 -4 0 -36 10 -71 21
-49 17 -61 25 -56 38 14 35 17 70 8 86 -8 13 -11 5 -16 -35 -7 -58 -10 -65
-26 -55 -8 4 -8 12 -1 25 5 10 10 37 10 59 0 46 -1 46 44 27z m887 -99 c-8 -8
-11 1 -11 29 0 53 14 67 18 19 2 -21 -1 -42 -7 -48z m36 31 c-2 -13 -4 -5 -4
17 -1 22 1 32 4 23 2 -10 2 -28 0 -40z m-70 -30 c-2 -13 -4 -3 -4 22 0 25 2
35 4 23 2 -13 2 -33 0 -45z m-122 35 c-2 -10 -4 -25 -5 -33 -1 -8 -6 -4 -10
10 -7 20 -8 16 -9 -22 -1 -27 -5 -48 -11 -48 -5 0 -10 6 -10 13 0 6 -3 28 -6
49 -6 32 -4 37 17 41 13 2 27 5 31 6 3 0 5 -7 3 -16z m-564 -52 c-2 -37 0 -51
8 -47 6 4 11 28 11 52 0 69 24 51 30 -22 6 -58 6 -58 14 -22 4 20 5 46 1 59
-6 18 -4 21 10 16 9 -4 19 -7 21 -7 2 0 4 -26 4 -59 l0 -59 -67 14 c-37 8 -68
16 -70 18 -2 2 0 29 3 60 5 45 10 56 23 54 13 -3 15 -14 12 -57z m648 7 c1
-10 -3 -18 -9 -18 -5 0 -10 17 -9 38 0 30 2 33 9 17 5 -11 9 -28 9 -37z m201
42 c0 -25 -204 -116 -303 -134 -34 -6 -38 -5 -35 11 3 14 13 18 51 18 26 0 47
2 47 6 0 6 77 32 83 27 2 -2 11 3 20 10 9 8 20 11 26 8 5 -3 12 1 15 10 3 8
10 12 16 9 5 -3 10 -1 10 5 0 6 4 9 9 6 5 -3 12 1 15 10 3 8 10 13 15 9 5 -3
12 -1 16 5 8 13 15 13 15 0z m-350 -44 c0 -25 -4 -47 -9 -50 -9 -6 -23 73 -15
86 13 21 24 4 24 -36z m87 22 c-3 -8 -6 -5 -6 6 -1 11 2 17 5 13 3 -3 4 -12 1
-19z m-128 -36 c-3 -54 8 -83 22 -61 10 17 23 5 16 -16 -4 -9 -19 -15 -41 -15
l-36 0 6 44 c4 25 2 52 -5 62 -8 15 -10 7 -11 -42 0 -46 -4 -63 -15 -68 -12
-4 -15 4 -15 42 0 26 -5 54 -10 62 -7 11 -10 -3 -10 -47 0 -35 -4 -63 -10 -63
-5 0 -10 22 -10 49 0 27 -3 56 -6 64 -4 11 7 17 43 25 86 18 85 18 82 -36z
m-291 -31 l3 -63 -28 7 c-15 3 -29 7 -29 8 -1 1 1 28 4 60 4 52 7 58 26 55 18
-3 21 -11 24 -67z m44 10 c-2 -30 0 -51 7 -55 8 -5 11 10 11 48 0 49 2 56 20
56 17 0 20 -7 20 -44 0 -24 3 -51 6 -60 5 -13 -2 -16 -44 -16 l-49 0 1 60 c1
48 4 60 17 60 13 0 15 -9 11 -49z m108 -17 c0 -48 -3 -65 -12 -62 -8 3 -14 28
-16 66 -2 51 0 62 13 62 12 0 15 -13 15 -66z m247 24 c-3 -8 -6 -5 -6 6 -1 11
2 17 5 13 3 -3 4 -12 1 -19z"/>
<path d="M3668 4196 c-9 -18 -50 -73 -90 -122 -106 -128 -111 -140 -20 -47 71
73 144 184 130 198 -2 3 -12 -10 -20 -29z"/>
<path d="M3530 3839 c-30 -16 -66 -41 -80 -55 l-25 -26 34 17 c51 26 147 96
129 95 -2 0 -28 -14 -58 -31z"/>
<path d="M3135 3050 c-86 -42 -191 -116 -200 -140 -4 -9 3 -7 17 6 13 12 37
29 53 39 17 11 4 -5 -28 -34 -32 -30 -55 -56 -52 -59 3 -3 15 4 28 15 12 11
62 48 111 82 93 64 103 75 36 41 -78 -40 -38 -10 53 39 109 60 96 68 -18 11z"/>
<path d="M3012 2845 c-35 -8 -78 -24 -95 -35 -18 -13 -23 -19 -12 -16 13 4 9
-3 -14 -23 -19 -15 -36 -36 -37 -45 -1 -9 -2 -16 -1 -16 1 0 27 10 57 22 30
11 102 36 160 54 58 18 96 33 85 33 -43 1 -155 -29 -220 -58 -37 -17 -70 -29
-72 -27 -6 6 193 106 211 106 8 0 18 5 21 10 8 13 -4 12 -83 -5z"/>
<path d="M3169 2684 c-5 -15 -42 -61 -82 -102 -70 -74 -71 -75 -23 -41 59 41
103 93 115 137 11 39 5 43 -10 6z"/>
<path d="M3075 2620 c-71 -72 -174 -138 -290 -185 -55 -23 -109 -47 -120 -54
l-20 -13 20 7 c210 69 254 90 341 161 37 30 132 134 122 134 -2 0 -26 -23 -53
-50z"/>
<path d="M2942 2449 c-24 -10 -98 -37 -165 -60 -67 -23 -133 -48 -147 -56 -16
-9 -18 -12 -5 -8 11 3 52 15 92 26 86 23 207 70 254 98 42 26 28 26 -29 0z"/>
<path d="M2121 1630 l1 -45 11 33 c7 24 7 36 -1 44 -9 9 -12 1 -11 -32z"/>
<path d="M1562 1478 c-31 -34 -52 -79 -51 -113 0 -27 1 -26 18 17 10 26 28 63
41 82 25 41 23 46 -8 14z"/>
<path d="M2270 1419 c0 -14 -34 -19 -42 -7 -6 10 -8 8 -8 -4 0 -23 -19 -23
-27 -1 -5 14 -8 13 -14 -5 -6 -16 -17 -22 -39 -22 -16 0 -30 5 -30 12 0 6 -2
9 -5 7 -2 -3 -1 -28 4 -57 4 -28 5 -56 1 -61 -3 -6 -35 -18 -71 -26 l-64 -15
68 5 c37 2 67 1 67 -4 0 -5 -12 -26 -26 -47 l-26 -39 31 30 c18 16 34 40 37
52 4 13 10 23 15 23 5 0 0 -19 -12 -42 -18 -35 -19 -40 -5 -29 10 8 26 31 36
50 11 20 19 29 19 21 1 -8 -6 -28 -14 -44 -20 -37 -20 -37 15 -20 65 33 129
145 105 184 -4 6 0 19 9 28 14 16 14 18 -4 18 -11 0 -20 -3 -20 -7z m0 -51 c0
-40 -17 -54 -22 -19 -3 17 -2 33 0 36 12 12 22 3 22 -17z m-40 -23 c0 -19 -4
-35 -10 -35 -11 0 -14 53 -3 63 11 12 13 8 13 -28z m-75 14 c4 -6 4 -27 0 -47
-6 -31 -9 -34 -15 -17 -19 45 -6 98 15 64z m35 -29 c0 -22 -4 -40 -10 -40 -11
0 -14 63 -3 73 11 12 13 8 13 -33z m15 -89 c-22 -44 -27 -38 -7 9 9 21 18 35
20 30 2 -5 -4 -22 -13 -39z"/>
<path d="M2537 2801 c-3 -13 -3 -38 0 -55 l7 -31 7 28 c4 15 4 39 0 54 l-7 28
-7 -24z"/>
<path d="M2610 2749 c14 -48 12 -60 -5 -24 -18 39 -18 35 0 -64 14 -80 25
-114 25 -77 0 9 4 15 9 12 13 -9 43 68 38 100 l-4 29 -8 -33 -8 -33 -17 51
c-21 61 -45 93 -30 39z"/>
<path d="M2470 2659 c0 -74 -39 -238 -62 -261 l-21 -21 7 49 c4 27 9 67 11 89
l4 40 -15 -45 c-11 -29 -17 -89 -19 -170 -2 -69 -1 -114 1 -100 9 48 15 57 24
35 8 -18 9 -18 9 -2 1 10 5 15 11 12 5 -3 7 0 5 8 -3 7 6 56 20 108 25 89 47
299 31 299 -3 0 -6 -18 -6 -41z m-63 -341 c-3 -8 -6 -5 -6 6 -1 11 2 17 5 13
3 -3 4 -12 1 -19z"/>
<path d="M2513 2576 c-7 -43 -28 -123 -47 -177 -18 -55 -31 -99 -29 -99 9 0
63 129 78 187 9 35 15 86 13 115 l-3 53 -12 -79z"/>
</g>
</svg>
